<?xml version="1.0" standalone="no"?>
<!DOCTYPE svg PUBLIC "-//W3C//DTD SVG 20010904//EN"
 "http://www.w3.org/TR/2001/REC-SVG-20010904/DTD/svg10.dtd">
<svg version="1.0" xmlns="http://www.w3.org/2000/svg"
 width="100.000000pt" height="100.000000pt" viewBox="0 0 100.000000 100.000000"
 preserveAspectRatio="xMidYMid meet">

<g transform="translate(0.000000,100.000000) scale(0.100000,-0.100000)"
fill="#000000" stroke="none">
<path d="M337 820 c-34 -30 -37 -30 -64 -17 -38 20 -123 33 -123 19 0 -6 5
-14 10 -17 6 -4 22 -29 36 -57 l25 -50 -21 -23 c-11 -12 -24 -40 -27 -61 -3
-21 -15 -56 -26 -77 -13 -26 -17 -47 -13 -71 7 -38 50 -86 76 -86 10 0 29 -16
44 -35 19 -24 37 -36 64 -40 20 -4 45 -9 55 -12 31 -8 76 -82 89 -144 7 -33
16 -59 20 -59 26 0 137 46 174 71 72 49 111 118 139 244 24 107 45 167 72 202
l24 33 -38 0 c-21 0 -53 -9 -71 -20 -18 -11 -37 -18 -41 -15 -5 2 -11 25 -13
50 -6 52 -28 82 -75 102 -18 7 -33 20 -33 27 0 8 -14 26 -32 41 -28 23 -38 26
-73 20 -47 -8 -57 -8 -106 1 -31 5 -41 1 -72 -26z m128 -1 c11 0 35 3 53 7 38
7 76 -13 85 -46 7 -28 -30 -43 -70 -28 -35 13 -76 5 -102 -21 -10 -10 -31 -21
-47 -24 -16 -3 -37 -9 -46 -12 -15 -6 -17 -1 -14 46 4 67 32 94 86 84 19 -3
44 -6 55 -6z m-197 -25 c28 -11 32 -18 32 -48 0 -35 -1 -36 -40 -36 -26 0 -40
5 -40 13 0 7 -11 29 -25 49 -14 20 -25 40 -25 43 0 8 56 -4 98 -21z m268 -64
c19 -8 37 -7 61 1 64 21 120 -27 111 -94 -1 -14 5 -34 14 -44 42 -46 27 -120
-28 -138 -17 -5 -47 -27 -66 -47 -47 -51 -79 -51 -127 1 -20 21 -48 41 -63 45
-29 7 -58 50 -58 84 0 11 11 36 25 56 14 21 23 42 19 47 -10 17 16 76 39 87
29 14 40 14 73 2z m-201 -61 c6 0 22 3 38 7 25 6 27 4 27 -22 -1 -39 -32 -74
-66 -74 -40 0 -64 -26 -64 -70 0 -51 26 -73 82 -69 45 2 108 -16 108 -32 0 -5
-9 -9 -20 -9 -11 0 -26 -12 -34 -29 -30 -58 -117 -56 -144 3 -7 15 -20 26 -31
26 -11 0 -32 10 -46 23 -33 28 -36 77 -7 117 14 18 22 44 22 68 0 58 39 87 95
70 17 -6 35 -10 40 -9z m511 -73 c-13 -20 -37 -90 -55 -161 -37 -150 -55 -189
-112 -239 -50 -46 -141 -90 -168 -81 -17 5 -18 10 -10 38 16 55 11 149 -10
189 -23 46 -17 53 19 26 20 -14 39 -19 64 -16 28 3 36 0 36 -12 0 -35 -31
-119 -58 -156 -42 -59 -49 -72 -25 -51 33 29 83 132 90 185 6 56 35 94 86 116
52 21 71 56 64 116 -6 47 -4 51 21 65 15 8 39 14 54 15 l27 0 -23 -34z m-364
-266 c18 -36 23 -102 12 -159 -9 -43 -18 -39 -32 16 -8 30 -26 59 -50 82 l-37
36 30 31 c38 40 55 38 77 -6z"/>
<path d="M520 610 c-43 -43 -11 -120 50 -120 17 0 39 9 50 20 11 11 20 33 20
50 0 17 -9 39 -20 50 -11 11 -33 20 -50 20 -17 0 -39 -9 -50 -20z"/>
</g>
</svg>
