<svg height="512.00122pt" viewBox="0 0 512.00122 512.00122" width="512.00122pt" xmlns="http://www.w3.org/2000/svg"><path d="m512 256c0 141.386719-114.613281 256-256 256s-256-114.613281-256-256c0-141.382812 114.613281-256 256-256s256 114.617188 256 256zm0 0" fill="#303a59"/><path d="m389.4375 92.511719c-11.53125 19.96875-37.097656 27.121093-57.070312 15.601562-19.933594-11.496093-26.765626-36.976562-15.261719-56.902343 11.289062-19.554688 48.363281-40.390626 99.527343-12.382813 1.582032.863281 2.144532 2.859375 1.246094 4.421875zm0 0" fill="#ff9e00"/><path d="m317.304688 50.867188c-11.527344 19.96875-4.9375 45.683593 15.023437 57.222656 19.921875 11.515625 45.40625 4.691406 56.90625-15.234375 11.292969-19.554688 10.796875-62.082031-39.035156-92.386719-1.542969-.9375-3.554688-.4257812-4.457031 1.136719zm0 0" fill="#ff9e00"/><path d="m350.199219.46875c-.839844-.5078125-1.816407-.585938-2.679688-.300781 38.179688 29.398437 37.722657 66.523437 27.390625 84.417969-10.078125 17.457031-30.882812 24.855468-49.28125 18.675781 2.027344 1.796875 4.261719 3.417969 6.699219 4.828125 19.921875 11.515625 45.40625 4.691406 56.910156-15.234375 11.289063-19.550781 10.796875-62.078125-39.039062-92.386719zm0 0" fill="#ffcf11"/><path d="m272.683594 94.550781c-11.195313 30.757813 4.363281 65.089844 35.113281 76.300781 30.691406 11.1875 64.636719-4.632812 75.808594-35.328124 10.964843-30.125-.210938-89.457032-77.355469-119.542969-2.386719-.929688-5.070312.28125-5.945312 2.683593zm0 0" fill="#ffcf11"/><path d="m383.605469 135.523438c8.105469-22.265626 4.105469-60.488282-29.683594-91.066407-10.117187-.960937-18.914063-.410156-26.046875.707031-17.285156 2.707032-33.019531 9.867188-44.519531 20.066407l-10.671875 29.320312c-11.195313 30.757813 4.363281 65.085938 35.113281 76.296875 30.691406 11.191406 64.636719-4.628906 75.808594-35.324218zm0 0" fill="#ff9e00"/><path d="m373.914062 152.996094c-21.039062 25.074218-58.546874 28.769531-83.632812 7.738281-25.035156-20.984375-28.304688-58.292969-7.3125-83.3125 20.605469-24.558594 77.582031-44.546875 142.207031 7.21875 2 1.601563 2.292969 4.53125.648438 6.492187zm0 0" fill="#ffcf11"/><path d="m304.605469 169.007812c-25.035157-20.984374-28.304688-58.292968-7.308594-83.316406 17.429687-20.769531 60.882813-38.269531 112.976563-11.839844-58.351563-37.84375-108.296876-19.078124-127.304688 3.570313-20.992188 25.023437-17.722656 62.332031 7.3125 83.316406 4.875 4.085938 10.21875 7.234375 15.820312 9.476563-.503906-.394532-1.003906-.792969-1.496093-1.207032zm0 0" fill="#ffe854"/><path d="m461.132812 194.695312c-19.96875 11.53125-45.683593 4.9375-57.222656-15.023437-11.515625-19.921875-4.691406-45.402344 15.234375-56.90625 19.554688-11.289063 62.082031-10.796875 92.386719 39.039063.9375 1.539062.425781 3.550781-1.132812 4.453124zm0 0" fill="#066ae7"/><path d="m419.488281 122.566406c-19.96875 11.527344-27.117187 37.09375-15.597656 57.070313 11.492187 19.929687 36.972656 26.765625 56.898437 15.261719 19.554688-11.292969 40.390626-48.367188 12.386719-99.53125-.867187-1.582032-2.863281-2.144532-4.425781-1.242188zm0 0" fill="#066ae7"/><path d="m473.175781 95.367188c-.472656-.859376-1.28125-1.417969-2.167969-1.601563 18.363282 44.546875-.59375 76.472656-18.488281 86.804687-17.457031 10.078126-39.175781 6.082032-52.019531-8.46875.859375 2.570313 1.984375 5.09375 3.390625 7.53125 11.492187 19.933594 36.972656 26.765626 56.898437 15.261719 19.554688-11.289062 40.390626-48.363281 12.386719-99.527343zm0 0" fill="#0c99e6"/><path d="m359.003906 138.085938c-25.074218 21.039062-28.765625 58.546874-7.738281 83.632812 20.984375 25.035156 58.292969 28.308594 83.3125 7.3125 24.558594-20.605469 44.550781-77.578125-7.21875-142.207031-1.597656-1.996094-4.53125-2.292969-6.492187-.648438zm0 0" fill="#0c99e6"/><path d="m434.578125 229.03125c18.152344-15.230469 33.800781-50.335938 19.828125-93.710938-8.28125-5.890624-16.179688-9.8125-22.910156-12.410156-16.324219-6.296875-33.53125-7.960937-48.589844-4.882812l-23.902344 20.058594c-25.074218 21.039062-28.765625 58.546874-7.738281 83.632812 20.984375 25.035156 58.292969 28.308594 83.3125 7.3125zm0 0" fill="#066ae7"/><path d="m417.449219 239.316406c-30.757813 11.195313-65.085938-4.359375-76.296875-35.113281-11.1875-30.691406 4.632812-64.636719 35.324218-75.808594 30.125-10.960937 89.460938.210938 119.542969 77.355469.929688 2.386719-.277343 5.070312-2.683593 5.949219zm0 0" fill="#0c99e6"/><path d="m349.421875 218.527344c-11.1875-30.691406 4.632813-64.636719 35.324219-75.804688 25.484375-9.277344 71.863281-2.707031 103.765625 46.230469-31.613281-61.949219-84.25-70.667969-112.035157-60.558594-30.691406 11.171875-46.511718 45.117188-35.324218 75.808594 2.175781 5.976563 5.230468 11.375 8.960937 16.117187-.238281-.59375-.472656-1.1875-.691406-1.792968zm0 0" fill="#63b0ff"/><path d="m313.332031 119.539062c-15.765625 22.515626-46.871093 28.351563-69.398437 12.59375-22.480469-15.722656-27.945313-46.691406-12.210938-69.160156 15.4375-22.050781 61.636719-42.945312 119.488282-4.367187 1.789062 1.191406 2.25 3.621093 1.015624 5.382812zm0 0" fill="#e32828"/><path d="m231.992188 62.585938c-15.765626 22.515624-10.605469 53.742187 11.902343 69.519531 22.460938 15.746093 53.433594 10.289062 69.164063-12.179688 15.441406-22.050781 19.277344-72.605469-36.761719-113.777343-1.730469-1.269532-4.175781-.875-5.40625.886718zm0 0" fill="#e32828"/><path d="m276.296875 6.148438c-.941406-.691407-2.097656-.886719-3.152344-.636719 42.289063 38.882812 37.890625 82.925781 23.761719 103.105469-13.785156 19.683593-39.261719 26.308593-60.472656 17.058593 2.226562 2.34375 4.710937 4.503907 7.457031 6.429688 22.464844 15.746093 53.4375 10.289062 69.167969-12.179688 15.441406-22.050781 19.277344-72.605469-36.761719-113.777343zm0 0" fill="#ff3345"/><path d="m174.464844 109.828125c-16.492188 35.363281-1.585938 77.753906 33.773437 94.261719 35.285157 16.476562 77.242188 1.214844 93.699219-34.078125 16.152344-34.632813 9.046875-106.261719-79.445312-150.007813-2.738282-1.351562-6.054688-.195312-7.34375 2.570313zm0 0" fill="#ff3345"/><path d="m301.9375 170.011719c11.9375-25.601563 11.160156-71.414063-25.789062-111.238281-11.914063-2.191407-22.421876-2.449219-31.007813-1.863282-20.808594 1.417969-40.238281 8.289063-54.957031 19.203125l-15.71875 33.714844c-16.492188 35.363281-1.585938 77.753906 33.773437 94.261719 35.285157 16.476562 77.242188 1.214844 93.699219-34.078125zm0 0" fill="#e32828"/><path d="m288.617188 189.757812c-27.59375 27.59375-72.523438 28.082032-100.132813.503907-27.550781-27.527344-27.558594-72.171875-.023437-99.707031 27.023437-27.023438 96.761718-44.84375 168.136718 23.347656 2.207032 2.109375 2.25 5.621094.09375 7.78125zm0 0" fill="#ff3345"/><path d="m204.640625 201.570312c-27.550781-27.523437-27.5625-72.171874-.027344-99.707031 22.859375-22.855469 76.28125-39.125 135.40625-2.324219-65.371093-51.003906-126.636719-33.910156-151.558593-8.984374-27.535157 27.535156-27.527344 72.179687.023437 99.707031 5.363281 5.359375 11.382813 9.652343 17.800781 12.898437-.550781-.519531-1.105468-1.046875-1.644531-1.589844zm0 0" fill="#ff6375"/><path d="m447.316406 282.105469c-22.515625 15.769531-53.742187 10.609375-69.519531-11.898438-15.746094-22.460937-10.292969-53.433593 12.175781-69.164062 22.050782-15.441407 72.609375-19.277344 113.777344 36.761719 1.273438 1.730468.875 4.171874-.886719 5.40625zm0 0" fill="#eb547f"/><path d="m390.363281 200.769531c-22.515625 15.765625-28.351562 46.871094-12.597656 69.398438 15.722656 22.476562 46.695313 27.945312 69.164063 12.210937 22.050781-15.4375 42.941406-61.636718 4.367187-119.488281-1.195313-1.789063-3.625-2.25-5.386719-1.015625zm0 0" fill="#eb547f"/><path d="m451.296875 162.890625c-.648437-.972656-1.667969-1.550781-2.742187-1.679687 26.4375 51 7.242187 90.886718-12.9375 105.015624-19.683594 13.78125-45.894532 11.292969-62.660157-4.652343 1.289063 2.960937 2.886719 5.84375 4.808594 8.59375 15.722656 22.476562 46.695313 27.941406 69.164063 12.210937 22.046874-15.4375 42.941406-61.636718 4.367187-119.488281zm0 0" fill="#f885a6"/><path d="m320.144531 225.484375c-27.59375 27.59375-28.082031 72.523437-.503906 100.128906 27.523437 27.554688 72.171875 27.5625 99.707031.027344 27.019532-27.023437 44.84375-96.761719-23.351562-168.136719-2.105469-2.207031-5.617188-2.25-7.777344-.09375zm0 0" fill="#f885a6"/><path d="m419.347656 325.640625c19.972656-19.972656 34.910156-63.289063 13.808594-113.347656-10.445312-6.136719-20.230469-9.972657-28.5-12.359375-20.039062-5.785156-40.644531-5.972656-58.210938-.75l-26.300781 26.300781c-27.59375 27.59375-28.082031 72.523437-.503906 100.132813 27.523437 27.550781 72.171875 27.558593 99.707031.023437zm0 0" fill="#eb547f"/><path d="m400.074219 339.636719c-35.367188 16.492187-77.753907 1.585937-94.261719-33.773438-16.476562-35.285156-1.214844-77.242187 34.074219-93.699219 34.636719-16.152343 106.265625-9.046874 150.011719 79.445313 1.351562 2.738281.195312 6.054687-2.570313 7.34375zm0 0" fill="#f885a6"/><path d="m317.121094 322.015625c-16.476563-35.285156-1.214844-77.242187 34.078125-93.699219 29.296875-13.660156 85.066406-10.675781 128.035156 44.125-43.980469-70.285156-107.398437-75.175781-139.34375-60.277344-35.292969 16.457032-50.554687 58.414063-34.078125 93.699219 3.207031 6.871094 7.394531 12.964844 12.316406 18.210938-.34375-.679688-.683594-1.363281-1.007812-2.058594zm0 0" fill="#f8a1bd"/><path d="m369.503906 212.710938c-19.433594 19.433593-51.082031 19.777343-70.53125.351562-19.40625-19.386719-19.410156-50.835938-.015625-70.230469 19.035157-19.035156 68.15625-31.589843 118.433594 16.445313 1.550781 1.488281 1.585937 3.960937.066406 5.480468zm0 0" fill="#c7d9ff"/><path d="m299.292969 142.496094c-19.4375 19.4375-19.78125 51.085937-.355469 70.53125 19.386719 19.40625 50.835938 19.414062 70.230469.019531 19.035156-19.035156 31.589843-68.160156-16.445313-118.433594-1.484375-1.554687-3.960937-1.589843-5.480468-.066406zm0 0" fill="#c7d9ff"/><path d="m352.722656 94.613281c-.808594-.847656-1.910156-1.238281-2.992187-1.179687 34.894531 45.636718 22.914062 88.25 5.496093 105.667968-16.992187 16.992188-43.238281 19.089844-62.515624 6.296876 1.78125 2.695312 3.855468 5.253906 6.226562 7.628906 19.386719 19.40625 50.835938 19.410156 70.230469.015625 19.035156-19.03125 31.589843-68.15625-16.445313-118.429688zm0 0" fill="#ebf0f3"/><path d="m234.433594 179.03125c-22.382813 31.964844-15.0625 76.296875 16.890625 98.695312 31.890625 22.351563 75.859375 14.609376 98.195312-17.289062 21.917969-31.304688 27.359375-103.078125-52.191406-161.527344-2.460937-1.804687-5.925781-1.242187-7.675781 1.257813zm0 0" fill="#ebf0f3"/><path d="m349.519531 260.4375c16.203125-23.140625 23.390625-68.390625-6.082031-114.027344-11.351562-4.226562-21.65625-6.304687-30.210938-7.222656-20.742187-2.214844-41.070312 1.175781-57.460937 9.371094l-21.332031 30.46875c-22.382813 31.96875-15.0625 76.300781 16.890625 98.699218 31.890625 22.355469 75.859375 14.609376 98.195312-17.289062zm0 0" fill="#c7d9ff"/><path d="m332.972656 277.570312c-31.96875 22.382813-76.300781 15.0625-98.699218-16.894531-22.351563-31.886719-14.609376-75.859375 17.289062-98.191406 31.304688-21.921875 103.082031-27.363281 161.527344 52.191406 1.808594 2.457031 1.242187 5.925781-1.257813 7.675781zm0 0" fill="#ebf0f3"/><path d="m248.21875 274.621094c-22.351562-31.890625-14.609375-75.859375 17.289062-98.195313 26.480469-18.542969 81.917969-25.285156 133.75 21.222657-55.515624-61.582032-118.820312-55.382813-147.695312-35.167969-31.898438 22.335937-39.640625 66.308593-17.289062 98.195312 4.355468 6.210938 9.535156 11.484375 15.292968 15.796875-.457031-.609375-.910156-1.222656-1.347656-1.851562zm0 0" fill="#fff"/><path d="m27.453125 371.433594c24.648437 48.707031 64.40625 88.464844 113.113281 113.113281l223.542969-118.359375-218.292969-218.296875zm0 0" fill="#0fe1c2"/><path d="m127.464844 182.550781 201.984375 201.988281 34.660156-18.351562-218.292969-218.296875zm0 0" fill="#19b89e"/><path d="m57.234375 417.320312 123.9375-234.070312-35.355469-35.355469-118.363281 223.539063c8.292969 16.390625 18.300781 31.757812 29.78125 45.886718zm0 0" fill="#19b89e"/><path d="m350.148438 384.023438-222.171876-222.171876c-1.871093-1.871093-1.871093-4.90625 0-6.777343l25.019532-25.019531c1.871094-1.871094 4.90625-1.871094 6.78125 0l222.167968 222.171874c1.875 1.871094 1.875 4.90625 0 6.777344l-25.015624 25.019532c-1.875 1.871093-4.910157 1.871093-6.78125 0zm0 0" fill="#66fade"/><path d="m163.332031 190.429688 25.019531-25.019532c1.871094-1.871094 4.910157-1.871094 6.78125 0l-35.355468-35.355468c-1.871094-1.871094-4.910156-1.871094-6.78125 0l-25.019532 25.019531c-1.871093 1.871093-1.871093 4.90625 0 6.777343l35.355469 35.355469c-1.871093-1.871093-1.871093-4.90625 0-6.777343zm0 0" fill="#0fe1c2"/><path d="m281.503906 412.15625-181.660156-181.660156c-2.785156-2.789063-7.476562-2.082032-9.324219 1.402344l-25.644531 48.433593c-1.203125 2.273438-.78125 5.066407 1.035156 6.886719l158.871094 158.871094c1.820312 1.820312 4.613281 2.238281 6.886719 1.035156l48.433593-25.644531c3.488282-1.84375 4.191407-6.535157 1.402344-9.324219zm0 0" fill="#c7d9ff"/><path d="m190.675781 321.328125-90.832031-90.832031c-2.785156-2.789063-7.476562-2.082032-9.324219 1.402344l-25.644531 48.433593c-1.203125 2.273438-.78125 5.066407 1.035156 6.886719l79.4375 79.4375zm0 0" fill="#b5ccf4"/><path d="m256.675781 352.199219c-18.421875-18.425781-69.527343-27.347657-69.527343-27.347657s-8.921876-51.105468-27.347657-69.527343c-18.421875-18.425781-98.882812 62.03125-80.457031 80.457031 18.421875 18.425781 69.527344 27.347656 69.527344 27.347656s8.921875 51.105469 27.347656 69.527344c18.425781 18.425781 98.882812-62.03125 80.457031-80.457031zm0 0" fill="#ebf0f3"/><path d="m159.800781 255.324219c-18.421875-18.425781-98.878906 62.035156-80.457031 80.457031 18.425781 18.425781 69.527344 27.347656 69.527344 27.347656l38.277344-38.273437c0-.003907-8.921876-51.105469-27.347657-69.53125zm0 0" fill="#c7d9ff"/><path d="m136.566406 375.4375c-12.886718-12.886719-12.886718-33.777344 0-46.664062l16.226563-16.226563c12.886719-12.886719 33.777343-12.886719 46.664062 0 12.886719 12.882813 12.886719 33.773437 0 46.660156l-16.230469 16.230469c-12.882812 12.882812-33.777343 12.882812-46.660156 0zm0 0" fill="#fff"/><path d="m150.707031 342.914062 16.226563-16.226562c10.421875-10.421875 26.074218-12.410156 38.5-5.976562-1.523438-2.941407-3.511719-5.699219-5.976563-8.164063-12.886719-12.886719-33.777343-12.886719-46.664062 0l-16.226563 16.226563c-12.886718 12.886718-12.886718 33.777343 0 46.664062 2.464844 2.464844 5.222656 4.453125 8.164063 5.976562-6.433594-12.425781-4.445313-28.078124 5.976562-38.5zm0 0" fill="#ebf0f3"/></svg>